<svg width="665" height="1217" viewBox="0 0 665 1217" fill="none" xmlns="http://www.w3.org/2000/svg">
<g filter="url(#filter0_d_133_35)">
<path fill-rule="evenodd" clip-rule="evenodd" d="M363 132.5C363 192.975 313.975 242 253.5 242C193.025 242 144 192.975 144 132.5C144 72.0248 193.025 23 253.5 23C313.975 23 363 72.0248 363 132.5ZM631 140.5C631 197.661 584.661 244 527.5 244C470.339 244 424 197.661 424 140.5C424 83.3385 470.339 37 527.5 37C584.661 37 631 83.3385 631 140.5ZM646 517.5C646 554.779 615.779 585 578.5 585C541.221 585 511 554.779 511 517.5C511 480.221 541.221 450 578.5 450C615.779 450 646 480.221 646 517.5ZM418.5 438C456.332 438 487 407.332 487 369.5C487 331.668 456.332 301 418.5 301C380.668 301 350 331.668 350 369.5C350 407.332 380.668 438 418.5 438ZM528.5 782C569.645 782 603 748.645 603 707.5C603 666.355 569.645 633 528.5 633C487.355 633 454 666.355 454 707.5C454 748.645 487.355 782 528.5 782ZM575 932C575 1007.66 513.663 1069 438 1069C362.337 1069 301 1007.66 301 932C301 856.337 362.337 795 438 795C513.663 795 575 856.337 575 932ZM388.5 607C415.838 607 438 584.838 438 557.5C438 530.162 415.838 508 388.5 508C361.162 508 339 530.162 339 557.5C339 584.838 361.162 607 388.5 607Z" fill="#FAFAF9"/>
</g>
<defs>
<filter id="filter0_d_133_35" x="0" y="-117" width="790" height="1334" filterUnits="userSpaceOnUse" color-interpolation-filters="sRGB">
<feFlood flood-opacity="0" result="BackgroundImageFix"/>
<feOffset dy="4"/>
<feGaussianBlur stdDeviation="55.5"/>
<feComposite in2="hardAlpha" operator="out"/>
<feBlend mode="normal" in2="BackgroundImageFix" result="effect1_dropShadow_133_35"/>
<feBlend mode="normal" in="SourceGraphic" in2="effect1_dropShadow_133_35" result="shape"/>
</filter>
</defs>
</svg>
